<?xml version="1.0" encoding="UTF-8"?>
<!DOCTYPE svg PUBLIC "-//W3C//DTD SVG 1.1//EN" "http://www.w3.org/Graphics/SVG/1.1/DTD/svg11.dtd">
<svg xmlns="http://www.w3.org/2000/svg" version="1.1" width="500px" height="500px" style="shape-rendering:geometricPrecision; text-rendering:geometricPrecision; image-rendering:optimizeQuality; fill-rule:evenodd; clip-rule:evenodd" xmlns:xlink="http://www.w3.org/1999/xlink">
<g><path style="opacity:0.004" fill="#fefffe" d="M 309.5,7.5 C 310.833,8.16667 310.833,8.16667 309.5,7.5 Z"/></g>
<g><path style="opacity:0.004" fill="#fefffe" d="M 33.5,18.5 C 34.8333,19.1667 34.8333,19.1667 33.5,18.5 Z"/></g>
<g><path style="opacity:0.004" fill="#fefffe" d="M 98.5,31.5 C 99.8333,32.1667 99.8333,32.1667 98.5,31.5 Z"/></g>
<g><path style="opacity:0.004" fill="#fefffe" d="M 292.5,35.5 C 293.833,36.1667 293.833,36.1667 292.5,35.5 Z"/></g>
<g><path style="opacity:0.004" fill="#fefffe" d="M 8.5,36.5 C 9.83333,37.1667 9.83333,37.1667 8.5,36.5 Z"/></g>
<g><path style="opacity:0.004" fill="#fefffe" d="M 123.5,40.5 C 124.833,41.1667 124.833,41.1667 123.5,40.5 Z"/></g>
<g><path style="opacity:0.004" fill="#fefffe" d="M 238.5,60.5 C 239.833,61.1667 239.833,61.1667 238.5,60.5 Z"/></g>
<g><path style="opacity:0.004" fill="#fefffe" d="M 47.5,62.5 C 48.8333,63.1667 48.8333,63.1667 47.5,62.5 Z"/></g>
<g><path style="opacity:0.004" fill="#fefffe" d="M 197.5,63.5 C 198.833,64.1667 198.833,64.1667 197.5,63.5 Z"/></g>
<g><path style="opacity:0.004" fill="#fefffe" d="M 72.5,68.5 C 73.8333,69.1667 73.8333,69.1667 72.5,68.5 Z"/></g>
<g><path style="opacity:0.004" fill="#fefffe" d="M 176.5,81.5 C 177.833,82.1667 177.833,82.1667 176.5,81.5 Z"/></g>
<g><path style="opacity:0.004" fill="#fefffe" d="M 103.5,109.5 C 104.833,110.167 104.833,110.167 103.5,109.5 Z"/></g>
<g><path style="opacity:0.004" fill="#fefffe" d="M 296.5,111.5 C 297.833,112.167 297.833,112.167 296.5,111.5 Z"/></g>
<g><path style="opacity:0.004" fill="#fefffe" d="M 214.5,113.5 C 215.833,114.167 215.833,114.167 214.5,113.5 Z"/></g>
<g><path style="opacity:0.004" fill="#fefffe" d="M 324.5,115.5 C 325.833,116.167 325.833,116.167 324.5,115.5 Z"/></g>
<g><path style="opacity:0.004" fill="#fefffe" d="M 337.5,117.5 C 338.833,118.167 338.833,118.167 337.5,117.5 Z"/></g>
<g><path style="opacity:0.004" fill="#fefffe" d="M 478.5,120.5 C 479.833,121.167 479.833,121.167 478.5,120.5 Z"/></g>
<g><path style="opacity:0.004" fill="#fefffe" d="M 478.5,121.5 C 477.833,122.167 477.833,122.167 478.5,121.5 Z"/></g>
<g><path style="opacity:0.004" fill="#fefffe" d="M 166.5,123.5 C 167.833,124.167 167.833,124.167 166.5,123.5 Z"/></g>
<g><path style="opacity:0.004" fill="#fefffe" d="M 359.5,128.5 C 360.833,129.167 360.833,129.167 359.5,128.5 Z"/></g>
<g><path style="opacity:0.004" fill="#fefffe" d="M 34.5,129.5 C 35.8333,130.167 35.8333,130.167 34.5,129.5 Z"/></g>
<g><path style="opacity:0.004" fill="#fefffe" d="M 191.5,129.5 C 192.833,130.167 192.833,130.167 191.5,129.5 Z"/></g>
<g><path style="opacity:0.004" fill="#fefffe" d="M 352.5,141.5 C 353.833,142.167 353.833,142.167 352.5,141.5 Z"/></g>
<g><path style="opacity:0.004" fill="#fefffe" d="M 141.5,145.5 C 142.833,146.167 142.833,146.167 141.5,145.5 Z"/></g>
<g><path style="opacity:0.004" fill="#fefffe" d="M 368.5,149.5 C 369.833,150.167 369.833,150.167 368.5,149.5 Z"/></g>
<g><path style="opacity:0.004" fill="#fefffe" d="M 470.5,149.5 C 471.833,150.167 471.833,150.167 470.5,149.5 Z"/></g>
<g><path style="opacity:0.004" fill="#fefffe" d="M 195.5,158.5 C 196.833,159.167 196.833,159.167 195.5,158.5 Z"/></g>
<g><path style="opacity:0.004" fill="#fefffe" d="M 366.5,161.5 C 367.833,162.167 367.833,162.167 366.5,161.5 Z"/></g>
<g><path style="opacity:0.004" fill="#fefffe" d="M 420.5,163.5 C 421.833,164.167 421.833,164.167 420.5,163.5 Z"/></g>
<g><path style="opacity:1" fill="#51151d" d="M 261.5,175.5 C 290.958,180.626 310.625,197.293 320.5,225.5C 320.171,228.228 320.837,230.562 322.5,232.5C 322.595,245.181 322.261,257.848 321.5,270.5C 321.5,270.833 321.5,271.167 321.5,271.5C 320.5,271.5 319.5,271.5 318.5,271.5C 316.857,276.8 315.19,282.133 313.5,287.5C 312.448,287.351 311.448,287.517 310.5,288C 310.833,288.333 311.167,288.667 311.5,289C 309.564,290.362 308.231,292.195 307.5,294.5C 306.167,293.5 304.833,292.5 303.5,291.5C 300.893,296.004 299.56,300.671 299.5,305.5C 295.607,305.728 293.274,307.728 292.5,311.5C 291.395,312.6 290.062,313.267 288.5,313.5C 286.011,313.241 284.344,314.241 283.5,316.5C 268.737,324.125 253.071,326.459 236.5,323.5C 235.942,322.21 234.942,321.377 233.5,321C 229.83,320.452 226.163,319.952 222.5,319.5C 186.873,303.942 171.04,276.609 175,237.5C 175.569,233.205 176.736,229.205 178.5,225.5C 180.256,224.448 180.923,222.781 180.5,220.5C 181.822,220.67 182.989,220.337 184,219.5C 184.852,215.811 185.685,212.144 186.5,208.5C 187.08,206.251 188.413,204.585 190.5,203.5C 192.945,202.26 195.279,200.76 197.5,199C 198.942,195.732 200.942,192.899 203.5,190.5C 206.803,186.844 210.803,184.178 215.5,182.5C 221.895,181.47 228.228,180.137 234.5,178.5C 234.709,177.914 235.043,177.414 235.5,177C 244.145,176.073 252.811,175.573 261.5,175.5 Z"/></g>
<g><path style="opacity:0.004" fill="#fefffe" d="M 384.5,177.5 C 385.833,178.167 385.833,178.167 384.5,177.5 Z"/></g>
<g><path style="opacity:1" fill="#64373c" d="M 261.5,175.5 C 252.811,175.573 244.145,176.073 235.5,177C 235.043,177.414 234.709,177.914 234.5,178.5C 228.228,180.137 221.895,181.47 215.5,182.5C 230.028,174.812 245.361,172.479 261.5,175.5 Z"/></g>
<g><path style="opacity:0.004" fill="#fefffe" d="M 22.5,183.5 C 23.8333,184.167 23.8333,184.167 22.5,183.5 Z"/></g>
<g><path style="opacity:1" fill="#6a3c40" d="M 203.5,190.5 C 200.942,192.899 198.942,195.732 197.5,199C 195.279,200.76 192.945,202.26 190.5,203.5C 193.833,198.167 198.167,193.833 203.5,190.5 Z"/></g>
<g><path style="opacity:0.004" fill="#fefffe" d="M 396.5,202.5 C 397.833,203.167 397.833,203.167 396.5,202.5 Z"/></g>
<g><path style="opacity:0.004" fill="#fefffe" d="M 495.5,216.5 C 496.833,217.167 496.833,217.167 495.5,216.5 Z"/></g>
<g><path style="opacity:1" fill="#66373d" d="M 186.5,208.5 C 185.685,212.144 184.852,215.811 184,219.5C 182.989,220.337 181.822,220.67 180.5,220.5C 180.923,222.781 180.256,224.448 178.5,225.5C 179.848,219.14 182.515,213.473 186.5,208.5 Z"/></g>
<g><path style="opacity:0.004" fill="#fefffe" d="M 366.5,227.5 C 367.833,228.167 367.833,228.167 366.5,227.5 Z"/></g>
<g><path style="opacity:0.886" fill="#836163" d="M 320.5,225.5 C 321.924,227.515 322.59,229.848 322.5,232.5C 320.837,230.562 320.171,228.228 320.5,225.5 Z"/></g>
<g><path style="opacity:0.004" fill="#fefffe" d="M 123.5,232.5 C 124.833,233.167 124.833,233.167 123.5,232.5 Z"/></g>
<g><path style="opacity:1" fill="#66383e" d="M 322.5,232.5 C 324.029,237.916 324.695,243.583 324.5,249.5C 324.916,256.842 323.916,263.842 321.5,270.5C 322.261,257.848 322.595,245.181 322.5,232.5 Z"/></g>
<g><path style="opacity:0.004" fill="#fefffe" d="M 142.5,246.5 C 143.833,247.167 143.833,247.167 142.5,246.5 Z"/></g>
<g><path style="opacity:0.004" fill="#fefffe" d="M 443.5,255.5 C 444.833,256.167 444.833,256.167 443.5,255.5 Z"/></g>
<g><path style="opacity:0.004" fill="#fefffe" d="M 15.5,260.5 C 16.8333,261.167 16.8333,261.167 15.5,260.5 Z"/></g>
<g><path style="opacity:0.004" fill="#fefffe" d="M 121.5,263.5 C 122.833,264.167 122.833,264.167 121.5,263.5 Z"/></g>
<g><path style="opacity:0.004" fill="#fefffe" d="M 344.5,264.5 C 345.833,265.167 345.833,265.167 344.5,264.5 Z"/></g>
<g><path style="opacity:0.004" fill="#fefffe" d="M 390.5,271.5 C 391.833,272.167 391.833,272.167 390.5,271.5 Z"/></g>
<g><path style="opacity:0.004" fill="#fefffe" d="M 447.5,281.5 C 448.833,282.167 448.833,282.167 447.5,281.5 Z"/></g>
<g><path style="opacity:0.004" fill="#fefffe" d="M 6.5,294.5 C 7.83333,295.167 7.83333,295.167 6.5,294.5 Z"/></g>
<g><path style="opacity:1" fill="#68383d" d="M 321.5,271.5 C 317.676,285.159 310.342,296.493 299.5,305.5C 299.56,300.671 300.893,296.004 303.5,291.5C 304.833,292.5 306.167,293.5 307.5,294.5C 308.231,292.195 309.564,290.362 311.5,289C 311.167,288.667 310.833,288.333 310.5,288C 311.448,287.517 312.448,287.351 313.5,287.5C 315.19,282.133 316.857,276.8 318.5,271.5C 319.5,271.5 320.5,271.5 321.5,271.5 Z"/></g>
<g><path style="opacity:1" fill="#754e51" d="M 299.5,305.5 C 297.393,307.727 295.06,309.727 292.5,311.5C 293.274,307.728 295.607,305.728 299.5,305.5 Z"/></g>
<g><path style="opacity:1" fill="#93696e" d="M 288.5,313.5 C 287.101,314.89 285.434,315.89 283.5,316.5C 284.344,314.241 286.011,313.241 288.5,313.5 Z"/></g>
<g><path style="opacity:0.004" fill="#fefffe" d="M 61.5,319.5 C 62.8333,320.167 62.8333,320.167 61.5,319.5 Z"/></g>
<g><path style="opacity:1" fill="#72484b" d="M 222.5,319.5 C 226.163,319.952 229.83,320.452 233.5,321C 234.942,321.377 235.942,322.21 236.5,323.5C 231.471,323.08 226.805,321.746 222.5,319.5 Z"/></g>
<g><path style="opacity:0.004" fill="#fefffe" d="M 439.5,327.5 C 440.833,328.167 440.833,328.167 439.5,327.5 Z"/></g>
<g><path style="opacity:0.004" fill="#fefffe" d="M 261.5,336.5 C 262.833,337.167 262.833,337.167 261.5,336.5 Z"/></g>
<g><path style="opacity:0.004" fill="#fefffe" d="M 187.5,337.5 C 188.833,338.167 188.833,338.167 187.5,337.5 Z"/></g>
<g><path style="opacity:0.004" fill="#fefffe" d="M 200.5,344.5 C 201.833,345.167 201.833,345.167 200.5,344.5 Z"/></g>
<g><path style="opacity:0.004" fill="#fefffe" d="M 386.5,378.5 C 387.833,379.167 387.833,379.167 386.5,378.5 Z"/></g>
<g><path style="opacity:0.004" fill="#fefffe" d="M 490.5,382.5 C 491.833,383.167 491.833,383.167 490.5,382.5 Z"/></g>
<g><path style="opacity:0.004" fill="#fefffe" d="M 295.5,392.5 C 296.833,393.167 296.833,393.167 295.5,392.5 Z"/></g>
<g><path style="opacity:0.004" fill="#fefffe" d="M 195.5,400.5 C 196.833,401.167 196.833,401.167 195.5,400.5 Z"/></g>
<g><path style="opacity:0.004" fill="#fefffe" d="M 487.5,400.5 C 488.833,401.167 488.833,401.167 487.5,400.5 Z"/></g>
<g><path style="opacity:0.004" fill="#fefffe" d="M 4.5,413.5 C 5.83333,414.167 5.83333,414.167 4.5,413.5 Z"/></g>
<g><path style="opacity:0.004" fill="#fefffe" d="M 46.5,417.5 C 47.8333,418.167 47.8333,418.167 46.5,417.5 Z"/></g>
<g><path style="opacity:0.004" fill="#fefffe" d="M 216.5,418.5 C 217.833,419.167 217.833,419.167 216.5,418.5 Z"/></g>
<g><path style="opacity:0.004" fill="#fefffe" d="M 232.5,423.5 C 233.833,424.167 233.833,424.167 232.5,423.5 Z"/></g>
<g><path style="opacity:0.004" fill="#fefffe" d="M 128.5,424.5 C 129.833,425.167 129.833,425.167 128.5,424.5 Z"/></g>
<g><path style="opacity:0.004" fill="#fefffe" d="M 16.5,430.5 C 17.8333,431.167 17.8333,431.167 16.5,430.5 Z"/></g>
<g><path style="opacity:0.004" fill="#fefffe" d="M 181.5,436.5 C 182.833,437.167 182.833,437.167 181.5,436.5 Z"/></g>
<g><path style="opacity:0.004" fill="#fefffe" d="M 209.5,438.5 C 210.833,439.167 210.833,439.167 209.5,438.5 Z"/></g>
<g><path style="opacity:0.004" fill="#fefffe" d="M 11.5,440.5 C 12.8333,441.167 12.8333,441.167 11.5,440.5 Z"/></g>
<g><path style="opacity:0.004" fill="#fefffe" d="M 278.5,441.5 C 279.833,442.167 279.833,442.167 278.5,441.5 Z"/></g>
<g><path style="opacity:0.004" fill="#fefffe" d="M 289.5,448.5 C 290.833,449.167 290.833,449.167 289.5,448.5 Z"/></g>
<g><path style="opacity:0.004" fill="#fefffe" d="M 423.5,451.5 C 424.833,452.167 424.833,452.167 423.5,451.5 Z"/></g>
<g><path style="opacity:0.004" fill="#fefffe" d="M 354.5,468.5 C 355.833,469.167 355.833,469.167 354.5,468.5 Z"/></g>
<g><path style="opacity:0.004" fill="#fefffe" d="M 470.5,468.5 C 471.833,469.167 471.833,469.167 470.5,468.5 Z"/></g>
<g><path style="opacity:0.004" fill="#fefffe" d="M 255.5,469.5 C 256.833,470.167 256.833,470.167 255.5,469.5 Z"/></g>
<g><path style="opacity:0.004" fill="#fefffe" d="M 490.5,480.5 C 491.833,481.167 491.833,481.167 490.5,480.5 Z"/></g>
<g><path style="opacity:0.004" fill="#fefffe" d="M 371.5,481.5 C 372.833,482.167 372.833,482.167 371.5,481.5 Z"/></g>
<g><path style="opacity:0.004" fill="#fefffe" d="M 127.5,484.5 C 128.833,485.167 128.833,485.167 127.5,484.5 Z"/></g>
<g><path style="opacity:0.004" fill="#fefffe" d="M 435.5,486.5 C 436.833,487.167 436.833,487.167 435.5,486.5 Z"/></g>
<g><path style="opacity:0.004" fill="#fefffe" d="M 315.5,487.5 C 316.833,488.167 316.833,488.167 315.5,487.5 Z"/></g>
<g><path style="opacity:0.004" fill="#fefffe" d="M 74.5,488.5 C 75.8333,489.167 75.8333,489.167 74.5,488.5 Z"/></g>
<g><path style="opacity:0.004" fill="#fefffe" d="M 6.5,499.5 C 5.83333,498.167 5.83333,498.167 6.5,499.5 Z"/></g>
</svg>
